<svg width="40" height="40" viewBox="0 0 40 40" fill="none" xmlns="http://www.w3.org/2000/svg">
<rect width="40" height="40" rx="20" fill="white"/>
<path d="M23.288 16.1635C23.288 17.9796 21.8157 19.4519 19.9995 19.4519C18.1834 19.4519 16.7111 17.9796 16.7111 16.1635C16.7111 14.3473 18.1834 12.875 19.9995 12.875C21.8157 12.875 23.288 14.3473 23.288 16.1635Z" stroke="black"/>
<path d="M19.9995 27.125C23.257 27.125 25.1338 26.2848 26.0044 25.7439C26.4118 25.4909 26.6125 25.0249 26.5711 24.5422C26.5145 23.883 26.2842 23.2246 26.0497 22.7023C25.7417 22.0166 25.0289 21.6442 24.2773 21.6442H15.7218C14.9701 21.6442 14.2573 22.0166 13.9494 22.7023C13.7149 23.2245 13.4845 23.883 13.4279 24.5422C13.3865 25.0249 13.5873 25.4909 13.9947 25.7439C14.8653 26.2848 16.7421 27.125 19.9995 27.125Z" stroke="black"/>
</svg>
