<svg version="1.0" xmlns="http://www.w3.org/2000/svg" width="400.000000pt" height="400.000000pt" viewBox="0 0 400 400" preserveAspectRatio="xMidYMid meet">
  <metadata>
    Created by potrace 1.16, written by Peter Selinger 2001-2019
  </metadata>
  <g transform="matrix(.1 0 0 -.1 0 400)" fill="#000000" stroke="none">
    <path d="M1610 3584c-14 -2 -63 -9 -110 -15 -111 -14 -221 -38 -322 -69 -101 -32 -119 -52 -58 -63 25 -4 -76 -11 -118 -7 -23 2 -160 -60 -199 -90 -17 -13 -19 -20 -10 -29 15 -15 68 -14 65 2 -2 6 28 27 66 46 64 32 76 34 215 42 80 4 163 8 184 8 21 1 36 5 33 10 -5 8 -39 17 -135 37 -44 9 -8 22 148 54 189 38 337 47 621 39 195 -6 470 -34 570 -59 19 -4 58 -11 85 -15 56 -7 321 -78 375 -99 19 -8 62 -24 95 -37 64 -24 94 -36 220 -92 44 -19 114 -49 155 -66 152 -64 153 -62 -20 -56l-155 5 39 -20c22 -11 43 -26 47 -33 37 -60 96 -116 149 -141 51 -24 56 -39 14 -46 -16 -3 -27 -10 -25 -15 3 -6 15 -33 28 -62 37 -79 55 -185 51 -288 -3 -49 -8 -98 -12 -107 -6 -14 -4 -18 12 -18 30 0 51 145 33 233 -6 34 -14 73 -17 87s-11 39 -19 55c-28 61 -29 82 -3 88 13 4 32 13 43 21 20 16 20 16 -5 36 -38 31 -64 45 -54 29 4 -8 -5 -4 -20 9 -16 12 -33 22 -38 22 -9 0 -45 33 -88 83l-24 28 129 -4c104 -3 133 -1 144 11 13 13 12 16 -5 29 -10 8 -35 22 -54 30s-48 21 -65 28c-16 8 -55 23 -85 35 -30 11 -68 27 -85 35 -26 13 -100 45 -115 50 -11 4 -66 26 -85 34 -125 54 -330 121 -435 141 -25 5 -61 14 -80 20 -51 15 -260 50 -370 61 -52 5 -135 13 -185 18 -85 9 -472 12 -525 5z"/>
    <path d="M622 3217c-74 -62 -219 -212 -248 -257 -16 -25 -32 -47 -36 -50 -10 -8 -88 -158 -88 -170 0 -6 -10 -32 -22 -58 -11 -26 -22 -62 -22 -79 -1 -18 -5 -33 -10 -33 -4 0 -6 -11 -4 -25 3 -14 2 -25 -2 -25s-9 -12 -10 -27c-6 -50 -4 -277 2 -308 12 -66 32 -132 50 -167 10 -21 16 -38 12 -38 -5 0 54 -110 65 -120 10 -9 51 -69 51 -75 0 -3 7 -13 15 -22 9 -10 35 -40 60 -68l44 -50 -32 -3c-103 -11 -59 -112 77 -176 63 -30 101 -32 153 -11 46 19 51 13 22 -23 -32 -40 -81 -72 -107 -72 -35 0 -119 -48 -166 -96 -65 -65 -98 -139 -99 -227 -2 -84 18 -131 78 -187 21 -19 45 -43 54 -53 98 -111 158 -146 263 -154 66 -6 97 -21 83 -43 -3 -5 -14 -10 -25 -10 -19 0 -30 -19 -30 -50 0 -40 121 -56 195 -25 49 21 89 63 104 108 10 30 17 35 68 48 33 7 70 25 89 41 67 59 67 125 0 112 -41 -7 -110 20 -130 51 -21 32 -21 32 12 33 22 1 195 15 301 25 20 2 27 -4 35 -32 7 -23 6 -39 -2 -52 -7 -10 -12 -32 -12 -48 0 -42 -16 -72 -53 -100 -36 -27 -107 -113 -107 -131 0 -6 -11 -22 -24 -34 -12 -13 -26 -30 -30 -38 -4 -7 -13 -24 -21 -38 -13 -22 -12 -27 4 -44 17 -17 43 -19 279 -24 190 -3 269 -2 290 7 16 7 84 13 153 14 68 1 130 6 137 10 7 5 12 28 12 54v45l88 -4c52 -3 99 -11 117 -21 65 -34 108 -48 130 -43 14 4 48 -3 82 -16 44 -17 76 -22 132 -20 85 2 121 19 121 57 0 13 5 27 10 30 13 8 13 82 -1 90 -5 4 5 15 24 25 102 55 167 192 153 324 -3 33 -3 56 1 52s10 -31 13 -59c4 -43 9 -53 26 -55 32 -5 49 19 64 87 24 113 0 216 -66 290 -54 61 -123 95 -222 110 -222 34 -221 34 -177 42 89 16 196 83 208 129 4 16 -2 22 -31 30 -21 5 -48 10 -62 10s-42 5 -63 11l-38 10 26 30c14 17 25 35 25 40 0 24 -21 47 -48 52 -16 3 -46 16 -68 29l-39 23 35 7c106 21 102 18 106 77 3 30 6 56 8 58s56 -2 120 -9c93 -9 135 -9 209 1 138 19 149 21 186 33 29 9 31 12 17 20 -18 10 -55 8 -170 -12 -70 -13 -336 -9 -368 5 -9 3 -27 36 -38 71 -12 35 -26 66 -31 69 -5 4 -9 15 -9 25 0 11 -13 34 -28 52s-33 45 -40 61c-6 15 -16 27 -22 27 -5 0 -10 4 -10 9 0 6 17 11 38 13 37 3 37 3 34 43 -2 22 -8 46 -14 53 -18 21 -61 10 -75 -18 -21 -41 -14 2 8 50 25 55 47 80 64 74 22 -9 55 15 55 40 0 16 11 29 35 42 45 24 46 61 3 56 -29 -3 -31 0 -32 52 -1 16 -9 34 -19 40 -15 9 -21 7 -36 -12 -15 -21 -19 -22 -30 -8 -20 23 -47 19 -70 -10l-21 -26 -92 45c-107 52 -238 99 -320 116 -37 8 -68 22 -90 42 -18 16 -62 50 -98 76s-78 57 -93 70c-16 13 -40 23 -53 23 -24 0 -174 -71 -243 -115 -26 -16 -63 -26 -139 -34 -177 -21 -370 -84 -431 -142 -23 -21 -23 -26 -19 -139 5 -109 4 -118 -19 -150 -12 -19 -23 -40 -23 -46s-7 -17 -15 -24c-9 -7 -13 -15 -11 -18 10 -9 -15 -43 -26 -36 -6 4 -8 3 -5 -2 3 -6 -10 -30 -29 -53 -19 -24 -34 -50 -34 -59 0 -8 13 -29 29 -48 40 -45 50 -122 25 -200 -29 -94 -56 -116 -168 -139 -26 -6 -28 -9 -23 -42 8 -45 30 -79 68 -102 31 -19 29 -31 -6 -31 -31 0 -149 128 -204 220 -31 52 -102 196 -105 211 -1 8 -5 19 -9 25 -4 7 -12 54 -19 106 -9 76 -9 120 1 214 7 65 14 129 15 142 0 12 4 22 7 22 4 0 10 17 14 38 8 43 72 200 92 223 7 8 13 20 13 25s14 27 30 48 27 43 24 48 -2 7 3 6c5 -2 49 38 99 87 50 50 97 95 105 100 8 6 36 27 63 48l49 37h-31c-19 0 -44 -12 -70 -33zm1113 -289c104 -79 110 -85 109 -118 -1 -19 -25 -100 -54 -179l-54 -143 -50 7c-28 4 -103 10 -166 14l-115 6 -7 60c-5 33 -14 110 -21 170 -8 62 -10 120 -6 132 6 15 43 40 116 77 59 30 115 55 123 55 9 1 65 -36 125 -81zm-322 -812c10 -11 17 -12 25 -4 19 19 42 -10 42 -54 0 -42 -20 -59 -44 -39 -11 9 -15 7 -19 -9 -4 -15 -13 -20 -36 -20 -35 0 -51 22 -51 70 0 17 5 40 10 51 13 22 52 25 73 5zm308 -241c24 -26 54 -51 66 -56 31 -12 29 -27 -4 -34 -16 -4 -46 -10 -67 -15 -22 -5 -43 -7 -48 -4 -18 11 -6 32 25 42l32 11 -36 -5 -37 -6 -16 71c-9 38 -16 92 -16 118l1 48 28 -62c16 -34 48 -82 72 -108zm-493 138c18 -16 82 -162 82 -187 0 -5 7 -18 17 -28 13 -14 13 -18 2 -18 -29 0 -95 23 -112 38 -14 12 -22 14 -35 6 -10 -7 -29 -8 -47 -4 -16 5 -43 11 -58 14l-28 7 49 55c27 30 58 73 68 94 21 44 32 48 62 23zm715 -132c17 -11 52 -24 76 -31l44 -12 -6 -87c-6 -93 -29 -168 -72 -233 -14 -21 -23 -43 -20 -48 8 -13 47 -13 81 0 15 6 29 8 31 6 7 -7 -32 -63 -76 -110 -77 -83 -258 -141 -365 -117 -29 6 -102 16 -162 21 -127 10 -235 26 -284 42 -34 11 -163 100 -187 129 -6 8 -16 26 -22 40 -9 24 -7 26 15 21 50 -9 56 4 24 50 -33 48 -60 140 -60 203 0 35 4 44 27 54 25 11 42 3 43 -20 0 -3 14 -10 32 -15 30 -9 31 -12 34 -67 4 -61 20 -108 42 -115 7 -2 16 5 19 17s10 21 15 21 8 12 6 26c-2 19 4 29 23 41 25 15 28 15 48 -4 13 -12 19 -26 15 -36 -4 -12 1 -20 19 -26 14 -5 27 -16 30 -23 10 -23 27 14 27 58 0 37 3 42 27 47 21 4 36 -2 61 -24 61 -54 199 -107 247 -95 14 4 26 1 29 -7 5 -9 7 -9 12 1 3 7 16 17 29 22 17 6 21 14 18 33 -3 17 2 28 19 39 22 14 26 14 46 -3 17 -13 21 -24 17 -42 -5 -18 -1 -28 19 -40 14 -10 27 -17 29 -17 14 0 39 84 35 118 -3 39 -2 41 33 51 48 15 66 35 48 57 -12 15 -34 15 -105 -2 -24 -6 -47 33 -60 100l-7 39 37 -21c20 -12 51 -31 69 -41zm181 -708c14 -42 82 -133 99 -133 20 0 96 -65 115 -98 32 -58 29 -76 -17 -92 -33 -11 -42 -10 -65 5 -14 10 -29 29 -33 44 -19 79 -75 135 -131 129 -36 -3 -110 21 -116 39 -13 34 6 59 67 89 77 38 73 38 81 17zm-87 -179c11 -7 35 -34 52 -59 17 -26 27 -43 21 -40 -5 3 -10 -3 -10 -15 0 -32 -53 -80 -87 -80 -93 2 -147 118 -87 189 21 26 30 29 57 24 18 -3 42 -11 54 -19zm-373 -109c-4 -10 0 -15 15 -15 11 0 39 -8 60 -17 36 -16 39 -20 34 -48 -3 -16 -10 -38 -15 -47 -7 -15 -4 -18 19 -18h27l-22 -16c-31 -21 -29 -62 2 -70 32 -8 43 0 51 36 8 35 7 35 48 13 29 -16 30 -18 11 -21 -12 -2 -32 -14 -45 -28 -43 -46 -119 -22 -119 38 0 24 -4 28 -29 28 -16 0 -36 3 -45 6 -11 4 -16 1 -16 -11 0 -9 -4 -13 -10 -10 -5 3 -10 19 -10 35 0 15 -6 31 -12 33 -10 4 -10 7 -1 14 19 13 33 59 22 70 -14 14 0 43 22 43 12 0 16 -5 13 -15zm507 -60c5 -4 8 -13 6 -19 -3 -7 3 -18 14 -24 11 -7 18 -22 17 -36 -3 -31 -59 -60 -99 -51 -24 5 -29 12 -29 35 0 16 -5 30 -11 32 -14 5 14 64 33 71 15 6 53 1 69 -8zm-691 -251c37 -25 89 -66 115 -92l47 -46 -33 -9c-35 -10 -395 -4 -405 6 -10 9 5 43 31 71 34 37 47 33 29 -10 -23 -56 -10 -65 14 -10 12 27 22 51 22 55s14 23 31 44c40 49 65 48 149 -9zm891 20c28 -14 49 -28 46 -30 -3 -3 -14 -1 -24 4 -26 14 -83 4 -76 -14 6 -16 33 -19 33 -4s36 12 49 -4c17 -20 67 -17 87 6 20 21 131 58 175 58 40 0 56 -39 38 -95 -19 -61 -25 -65 -94 -65 -70 0 -167 29 -201 60 -18 17 -23 18 -33 7 -9 -12 -18 -11 -58 9 -25 13 -49 26 -51 29 -5 4 47 64 56 65 1 0 25 -12 53 -26z"/>
    <path d="M1575 2928c-33 -48 -45 -152 -13 -120 17 17 44 15 73 -4 35 -23 31 -42 -21 -98 -43 -47 -45 -48 -64 -31 -11 10 -20 27 -20 37 0 26 30 35 45 15 11 -15 14 -15 24 -3 14 16 -1 56 -20 56 -23 0 -89 -42 -89 -56 0 -12 -6 -15 -22 -11 -22 5 -22 5 2 -11 67 -45 82 -67 88 -120 5 -60 18 -76 28 -35 22 100 30 118 59 132 17 7 38 21 48 29 21 19 23 57 2 49 -11 -5 -12 -1 -5 19 15 40 12 54 -12 54 -13 0 -32 7 -42 15 -11 8 -28 15 -38 15 -21 0 -24 23 -5 39 10 8 17 7 25 -1 17 -17 28 18 12 37 -18 21 -36 19 -55 -7z"/>
    <path d="M3530 2245c-11 -18 -20 -35 -20 -39 0 -3 28 -20 62 -37s68 -37 75 -45c12 -12 10 -14 -16 -14 -17 0 -89 9 -161 21 -72 11 -136 18 -143 16 -6 -3 2 -6 19 -6 16 -1 38 -7 48 -14 18 -13 17 -15 -7 -34l-25 -20 51 -26c29 -15 48 -27 42 -28 -5 -1 -52 0 -103 0 -51 1 -103 -1 -115 -5l-22 -7 22 -8c34 -12 206 -22 257 -15 63 10 59 28 -14 68s-65 54 22 39c113 -19 224 -25 233 -12 7 12 -21 51 -37 51 -4 0 -30 15 -56 33 -26 19 -54 36 -62 39 -8 2 -15 16 -15 31 -1 14 2 24 6 21 4 -2 10 0 13 5s-3 11 -14 14c-14 4 -25 -4 -40 -28z"/>
  </g>
</svg>
